G04 MADE WITH FRITZING*
G04 WWW.FRITZING.ORG*
G04 DOUBLE SIDED*
G04 HOLES PLATED*
G04 CONTOUR ON CENTER OF CONTOUR VECTOR*
%ASAXBY*%
%FSLAX23Y23*%
%MOIN*%
%OFA0B0*%
%SFA1.0B1.0*%
%ADD10C,0.214725*%
%ADD11C,0.085433*%
%ADD12C,0.600552*%
%ADD13C,0.087778*%
%ADD14C,0.089370*%
%ADD15C,0.090000*%
%ADD16C,0.084803*%
%ADD17C,0.085000*%
%ADD18C,0.075000*%
%ADD19C,0.030000*%
%ADD20R,0.001000X0.001000*%
%LNMASK0*%
G90*
G70*
G54D10*
X1607Y400D03*
X2207Y1700D03*
X707Y2400D03*
G54D11*
X1807Y750D03*
X2307Y1200D03*
X1107Y300D03*
G54D12*
X1351Y1358D03*
G54D11*
X1357Y2000D03*
X957Y2300D03*
G54D13*
X1207Y1800D03*
X1107Y1800D03*
X1007Y1800D03*
X907Y1800D03*
X807Y1800D03*
X707Y1800D03*
X607Y1800D03*
X507Y1800D03*
X507Y900D03*
X607Y900D03*
X707Y900D03*
X807Y900D03*
X907Y900D03*
X1007Y900D03*
X1107Y900D03*
X1207Y900D03*
G54D14*
X1607Y850D03*
X1705Y948D03*
X1802Y1045D03*
G54D15*
X1824Y1691D03*
X1726Y1788D03*
X1629Y1886D03*
G54D14*
X1857Y2550D03*
X1757Y2550D03*
X1657Y2550D03*
X1557Y2550D03*
X1457Y2550D03*
X1007Y600D03*
X907Y600D03*
X1507Y200D03*
X1407Y200D03*
X1307Y200D03*
X1207Y200D03*
X2457Y1500D03*
X2457Y1400D03*
X2457Y1300D03*
X2457Y1200D03*
X2007Y2300D03*
X2078Y2230D03*
X2149Y2159D03*
X2220Y2088D03*
X1107Y400D03*
X1007Y400D03*
X907Y400D03*
X807Y400D03*
X2007Y1950D03*
X1907Y1950D03*
X1807Y1950D03*
X507Y2150D03*
X607Y2150D03*
X707Y2150D03*
X507Y1900D03*
X807Y500D03*
X907Y500D03*
X1007Y500D03*
X1107Y500D03*
X1007Y1900D03*
X807Y600D03*
X1207Y800D03*
X1107Y800D03*
G54D16*
X1807Y2450D03*
X1707Y2450D03*
X1107Y2450D03*
X1207Y2450D03*
X1307Y2450D03*
X1407Y2450D03*
X1507Y2450D03*
X1607Y2450D03*
X1807Y2150D03*
X1707Y2150D03*
X1107Y2150D03*
X1207Y2150D03*
X1307Y2150D03*
X1407Y2150D03*
X1507Y2150D03*
X1607Y2150D03*
G54D17*
X1507Y1950D03*
X1295Y1738D03*
G54D18*
X1957Y1250D03*
X1957Y1450D03*
G54D19*
G36*
X1565Y850D02*
X1607Y892D01*
X1649Y850D01*
X1607Y808D01*
X1565Y850D01*
G37*
D02*
G36*
X1824Y1648D02*
X1781Y1691D01*
X1824Y1733D01*
X1866Y1691D01*
X1824Y1648D01*
G37*
D02*
G54D20*
X1919Y1488D02*
X1993Y1488D01*
X1919Y1487D02*
X1993Y1487D01*
X1919Y1486D02*
X1993Y1486D01*
X1919Y1485D02*
X1993Y1485D01*
X1919Y1484D02*
X1993Y1484D01*
X1919Y1483D02*
X1993Y1483D01*
X1919Y1482D02*
X1993Y1482D01*
X1919Y1481D02*
X1993Y1481D01*
X1919Y1480D02*
X1993Y1480D01*
X1919Y1479D02*
X1993Y1479D01*
X1919Y1478D02*
X1993Y1478D01*
X1919Y1477D02*
X1993Y1477D01*
X1919Y1476D02*
X1993Y1476D01*
X1919Y1475D02*
X1993Y1475D01*
X1919Y1474D02*
X1993Y1474D01*
X1919Y1473D02*
X1993Y1473D01*
X1919Y1472D02*
X1993Y1472D01*
X1919Y1471D02*
X1993Y1471D01*
X1919Y1470D02*
X1993Y1470D01*
X1919Y1469D02*
X1993Y1469D01*
X1919Y1468D02*
X1993Y1468D01*
X1919Y1467D02*
X1993Y1467D01*
X1919Y1466D02*
X1993Y1466D01*
X1919Y1465D02*
X1993Y1465D01*
X1919Y1464D02*
X1993Y1464D01*
X1919Y1463D02*
X1993Y1463D01*
X1919Y1462D02*
X1993Y1462D01*
X1919Y1461D02*
X1993Y1461D01*
X1919Y1460D02*
X1993Y1460D01*
X1919Y1459D02*
X1952Y1459D01*
X1961Y1459D02*
X1993Y1459D01*
X1919Y1458D02*
X1950Y1458D01*
X1962Y1458D02*
X1993Y1458D01*
X1919Y1457D02*
X1949Y1457D01*
X1963Y1457D02*
X1993Y1457D01*
X1919Y1456D02*
X1948Y1456D01*
X1964Y1456D02*
X1993Y1456D01*
X1919Y1455D02*
X1948Y1455D01*
X1965Y1455D02*
X1993Y1455D01*
X1919Y1454D02*
X1947Y1454D01*
X1965Y1454D02*
X1993Y1454D01*
X1919Y1453D02*
X1947Y1453D01*
X1965Y1453D02*
X1993Y1453D01*
X1919Y1452D02*
X1947Y1452D01*
X1965Y1452D02*
X1993Y1452D01*
X1919Y1451D02*
X1947Y1451D01*
X1966Y1451D02*
X1993Y1451D01*
X1919Y1450D02*
X1947Y1450D01*
X1965Y1450D02*
X1993Y1450D01*
X1919Y1449D02*
X1947Y1449D01*
X1965Y1449D02*
X1993Y1449D01*
X1919Y1448D02*
X1948Y1448D01*
X1965Y1448D02*
X1993Y1448D01*
X1919Y1447D02*
X1948Y1447D01*
X1965Y1447D02*
X1993Y1447D01*
X1919Y1446D02*
X1949Y1446D01*
X1964Y1446D02*
X1993Y1446D01*
X1919Y1445D02*
X1950Y1445D01*
X1963Y1445D02*
X1993Y1445D01*
X1919Y1444D02*
X1951Y1444D01*
X1962Y1444D02*
X1993Y1444D01*
X1919Y1443D02*
X1953Y1443D01*
X1960Y1443D02*
X1993Y1443D01*
X1919Y1442D02*
X1993Y1442D01*
X1919Y1441D02*
X1993Y1441D01*
X1919Y1440D02*
X1993Y1440D01*
X1919Y1439D02*
X1993Y1439D01*
X1919Y1438D02*
X1993Y1438D01*
X1919Y1437D02*
X1993Y1437D01*
X1919Y1436D02*
X1993Y1436D01*
X1919Y1435D02*
X1993Y1435D01*
X1919Y1434D02*
X1993Y1434D01*
X1919Y1433D02*
X1993Y1433D01*
X1919Y1432D02*
X1993Y1432D01*
X1919Y1431D02*
X1993Y1431D01*
X1919Y1430D02*
X1993Y1430D01*
X1919Y1429D02*
X1993Y1429D01*
X1919Y1428D02*
X1993Y1428D01*
X1919Y1427D02*
X1993Y1427D01*
X1919Y1426D02*
X1993Y1426D01*
X1919Y1425D02*
X1993Y1425D01*
X1919Y1424D02*
X1993Y1424D01*
X1919Y1423D02*
X1993Y1423D01*
X1919Y1422D02*
X1993Y1422D01*
X1919Y1421D02*
X1993Y1421D01*
X1919Y1420D02*
X1993Y1420D01*
X1919Y1419D02*
X1993Y1419D01*
X1919Y1418D02*
X1993Y1418D01*
X1919Y1417D02*
X1993Y1417D01*
X1919Y1416D02*
X1993Y1416D01*
X1919Y1415D02*
X1993Y1415D01*
X1919Y1414D02*
X1993Y1414D01*
D02*
G04 End of Mask0*
M02*