; NON-PLATED HOLES START AT T1
; THROUGH (PLATED) HOLES START AT T100
M48
INCH
T1C0.590552
T100C0.039370
T101C0.038522
T102C0.027559
T103C0.125984
T104C0.035000
T105C0.036111
T106C0.035433
T107C0.040000
%
T1
X013511Y013584
T100
X014074Y002002
X009074Y006002
X005074Y019002
X019074Y019502
X015574Y025502
X024574Y015002
X017574Y025502
X024574Y013002
X008074Y004002
X017048Y009476
X020074Y023002
X005074Y021502
X018074Y019502
X008074Y006002
X018023Y010450
X011074Y005002
X010074Y006002
X024574Y014002
X014574Y025502
X008074Y005002
X011074Y004002
X007074Y021502
X020781Y022295
X016574Y025502
X021488Y021587
X011074Y008002
X010074Y004002
X010074Y005002
X009074Y005002
X022195Y020880
X024574Y012002
X012074Y008002
X018574Y025502
X016074Y008502
X013074Y002002
X020074Y019502
X006074Y021502
X010074Y019002
X012074Y002002
X009074Y004002
X015074Y002002
T101
X013074Y021502
X016074Y024502
X018073Y024500
X014074Y024502
X015074Y021502
X012074Y024502
X016074Y021502
X014074Y021502
X015074Y024502
X011074Y021502
X011074Y024502
X017074Y024502
X017074Y021502
X012074Y021502
X013074Y024502
X018073Y021500
T102
X019574Y014502
X019574Y012502
T103
X007074Y024002
X022074Y017002
X016074Y004002
T104
X012953Y017380
X015074Y019502
T105
X010074Y009002
X007074Y009002
X005074Y009002
X012074Y009002
X010074Y018002
X006074Y009002
X011074Y009002
X008074Y009002
X008074Y018002
X009074Y009002
X011074Y018002
X007074Y018002
X006074Y018002
X012074Y018002
X005074Y018002
X009074Y018002
T106
X011074Y003001
X009574Y023002
X018074Y007501
X023074Y012001
X013574Y020002
T107
X018235Y016906
X017260Y017881
X016286Y018855
T00
M30
