G04 MADE WITH FRITZING*
G04 WWW.FRITZING.ORG*
G04 DOUBLE SIDED*
G04 HOLES PLATED*
G04 CONTOUR ON CENTER OF CONTOUR VECTOR*
%ASAXBY*%
%FSLAX23Y23*%
%MOIN*%
%OFA0B0*%
%SFA1.0B1.0*%
%ADD10C,0.204725*%
%ADD11C,0.075433*%
%ADD12C,0.077778*%
%ADD13C,0.079370*%
%ADD14C,0.080000*%
%ADD15C,0.074803*%
%ADD16C,0.075000*%
%ADD17C,0.065000*%
%ADD18C,0.024000*%
%ADD19C,0.048000*%
%ADD20C,0.020000*%
%ADD21R,0.001000X0.001000*%
%LNCOPPER0*%
G90*
G70*
G54D10*
X1607Y400D03*
X2207Y1700D03*
X707Y2400D03*
G54D11*
X1807Y750D03*
X2307Y1200D03*
X1107Y300D03*
X1357Y2000D03*
X957Y2300D03*
G54D12*
X1207Y1800D03*
X1107Y1800D03*
X1007Y1800D03*
X907Y1800D03*
X807Y1800D03*
X707Y1800D03*
X607Y1800D03*
X507Y1800D03*
X507Y900D03*
X607Y900D03*
X707Y900D03*
X807Y900D03*
X907Y900D03*
X1007Y900D03*
X1107Y900D03*
X1207Y900D03*
G54D13*
X1607Y850D03*
X1705Y948D03*
X1802Y1045D03*
G54D14*
X1824Y1691D03*
X1726Y1788D03*
X1629Y1886D03*
G54D13*
X1857Y2550D03*
X1757Y2550D03*
X1657Y2550D03*
X1557Y2550D03*
X1457Y2550D03*
X1007Y600D03*
X907Y600D03*
X1507Y200D03*
X1407Y200D03*
X1307Y200D03*
X1207Y200D03*
X2457Y1500D03*
X2457Y1400D03*
X2457Y1300D03*
X2457Y1200D03*
X2007Y2300D03*
X2078Y2230D03*
X2149Y2159D03*
X2220Y2088D03*
X1107Y400D03*
X1007Y400D03*
X907Y400D03*
X807Y400D03*
X2007Y1950D03*
X1907Y1950D03*
X1807Y1950D03*
X507Y2150D03*
X607Y2150D03*
X707Y2150D03*
X507Y1900D03*
X807Y500D03*
X907Y500D03*
X1007Y500D03*
X1107Y500D03*
X1007Y1900D03*
X807Y600D03*
X1207Y800D03*
X1107Y800D03*
G54D15*
X1807Y2450D03*
X1707Y2450D03*
X1107Y2450D03*
X1207Y2450D03*
X1307Y2450D03*
X1407Y2450D03*
X1507Y2450D03*
X1607Y2450D03*
X1807Y2150D03*
X1707Y2150D03*
X1107Y2150D03*
X1207Y2150D03*
X1307Y2150D03*
X1407Y2150D03*
X1507Y2150D03*
X1607Y2150D03*
G54D16*
X1507Y1950D03*
X1295Y1738D03*
G54D17*
X1957Y1250D03*
X1957Y1450D03*
G54D18*
X507Y1829D02*
X507Y1869D01*
G54D19*
D02*
X2267Y1200D02*
X2107Y1201D01*
D02*
X2056Y1252D02*
X2056Y1401D01*
D02*
X2056Y1401D02*
X2009Y1449D01*
D02*
X2009Y1449D02*
X1993Y1449D01*
D02*
X2107Y1201D02*
X2056Y1252D01*
G54D18*
D02*
X1858Y2051D02*
X1907Y1999D01*
D02*
X1407Y2100D02*
X1457Y2049D01*
D02*
X1907Y1999D02*
X1907Y1981D01*
D02*
X1457Y2049D02*
X1858Y2051D01*
D02*
X1407Y2120D02*
X1407Y2100D01*
G54D19*
D02*
X459Y899D02*
X467Y899D01*
D02*
X506Y2099D02*
X409Y1999D01*
D02*
X406Y951D02*
X459Y899D01*
D02*
X409Y1999D02*
X406Y951D01*
D02*
X507Y2108D02*
X506Y2099D01*
G54D18*
D02*
X607Y1829D02*
X607Y2119D01*
G54D19*
D02*
X856Y2400D02*
X856Y2301D01*
D02*
X807Y2251D02*
X708Y2251D01*
D02*
X909Y2449D02*
X856Y2400D01*
D02*
X856Y2301D02*
X807Y2251D01*
D02*
X1066Y2450D02*
X909Y2449D01*
D02*
X1706Y749D02*
X1637Y820D01*
D02*
X1768Y750D02*
X1706Y749D01*
D02*
X1957Y949D02*
X1957Y1214D01*
D02*
X1747Y948D02*
X1957Y949D01*
D02*
X2008Y1908D02*
X2008Y1700D01*
D02*
X1107Y358D02*
X1107Y340D01*
D02*
X2106Y949D02*
X1957Y949D01*
D02*
X1959Y2149D02*
X1849Y2150D01*
D02*
X2008Y2100D02*
X1959Y2149D01*
D02*
X2008Y1992D02*
X2008Y2100D01*
D02*
X2107Y899D02*
X1757Y549D01*
D02*
X1757Y549D02*
X1757Y199D01*
D02*
X1608Y100D02*
X1308Y100D01*
D02*
X1308Y100D02*
X1107Y100D01*
D02*
X1757Y199D02*
X1608Y100D01*
D02*
X657Y301D02*
X308Y951D01*
D02*
X708Y2251D02*
X708Y2192D01*
D02*
X307Y1999D02*
X457Y2251D01*
D02*
X457Y2251D02*
X708Y2251D01*
D02*
X308Y951D02*
X307Y1999D01*
D02*
X1107Y100D02*
X657Y301D01*
D02*
X2106Y949D02*
X2107Y899D01*
D02*
X507Y800D02*
X507Y860D01*
D02*
X766Y400D02*
X708Y401D01*
D02*
X708Y401D02*
X507Y800D01*
D02*
X1806Y1849D02*
X1807Y1908D01*
D02*
X1760Y1814D02*
X1806Y1849D01*
D02*
X1866Y1693D02*
X2008Y1700D01*
D02*
X2007Y1450D02*
X1993Y1450D01*
D02*
X2008Y1700D02*
X2007Y1450D01*
D02*
X1859Y1252D02*
X1806Y1301D01*
D02*
X1806Y1301D02*
X1806Y1552D01*
D02*
X1806Y1552D02*
X1707Y1651D01*
D02*
X1707Y1651D02*
X1720Y1746D01*
D02*
X1921Y1251D02*
X1859Y1252D01*
G54D18*
D02*
X1559Y1951D02*
X1606Y1907D01*
D02*
X1536Y1951D02*
X1559Y1951D01*
D02*
X1107Y831D02*
X1107Y871D01*
D02*
X1207Y831D02*
X1207Y871D01*
G54D19*
D02*
X1266Y2450D02*
X1249Y2450D01*
G54D18*
D02*
X1444Y2523D02*
X1421Y2477D01*
D02*
X1544Y2523D02*
X1521Y2477D01*
D02*
X1808Y2349D02*
X1659Y2349D01*
D02*
X1659Y2349D02*
X1509Y2200D01*
D02*
X1509Y2200D02*
X1508Y2181D01*
D02*
X1907Y2451D02*
X1808Y2349D01*
D02*
X1907Y2499D02*
X1907Y2451D01*
D02*
X1879Y2528D02*
X1907Y2499D01*
D02*
X1771Y2523D02*
X1794Y2477D01*
D02*
X1671Y2523D02*
X1694Y2477D01*
D02*
X858Y1700D02*
X807Y1650D01*
D02*
X807Y1650D02*
X807Y929D01*
D02*
X1206Y1700D02*
X858Y1700D01*
D02*
X1269Y1727D02*
X1206Y1700D01*
D02*
X707Y800D02*
X707Y871D01*
D02*
X794Y628D02*
X707Y800D01*
D02*
X1709Y1550D02*
X1709Y1100D01*
D02*
X1709Y1100D02*
X1757Y1049D01*
D02*
X1757Y1049D02*
X1772Y1048D01*
D02*
X1456Y1799D02*
X1709Y1550D01*
D02*
X1237Y1800D02*
X1456Y1799D01*
D02*
X1759Y2251D02*
X1709Y2201D01*
D02*
X1956Y2251D02*
X1759Y2251D01*
D02*
X1709Y2201D02*
X1708Y2181D01*
D02*
X1985Y2279D02*
X1956Y2251D01*
D02*
X1608Y2201D02*
X1608Y2181D01*
D02*
X2008Y2400D02*
X1859Y2301D01*
D02*
X2406Y1551D02*
X2407Y2149D01*
D02*
X2407Y2149D02*
X2156Y2400D01*
D02*
X2156Y2400D02*
X2008Y2400D01*
D02*
X1859Y2301D02*
X1709Y2301D01*
D02*
X1709Y2301D02*
X1608Y2201D01*
D02*
X2435Y1522D02*
X2406Y1551D01*
G54D19*
D02*
X2357Y1199D02*
X2416Y1200D01*
D02*
X2347Y1200D02*
X2357Y1199D01*
D02*
X2106Y1951D02*
X2049Y1950D01*
D02*
X2193Y2056D02*
X2106Y1951D01*
G54D18*
D02*
X2358Y2101D02*
X2358Y1350D01*
D02*
X2358Y1350D02*
X2457Y1300D01*
D02*
X2457Y1300D02*
X2438Y1276D01*
D02*
X2256Y2200D02*
X2358Y2101D01*
D02*
X2178Y2170D02*
X2256Y2200D01*
G54D19*
D02*
X2106Y1049D02*
X2156Y1099D01*
D02*
X2156Y1099D02*
X2507Y1101D01*
D02*
X2507Y1101D02*
X2559Y1150D01*
D02*
X2559Y1150D02*
X2559Y1249D01*
D02*
X2559Y1249D02*
X2508Y1299D01*
D02*
X2508Y1299D02*
X2499Y1300D01*
D02*
X2106Y949D02*
X2106Y1049D01*
D02*
X1107Y249D02*
X1107Y260D01*
D02*
X1158Y201D02*
X1107Y249D01*
D02*
X1166Y201D02*
X1158Y201D01*
D02*
X1156Y501D02*
X1308Y301D01*
D02*
X1308Y301D02*
X1308Y242D01*
D02*
X1149Y501D02*
X1156Y501D01*
G54D18*
D02*
X1407Y301D02*
X1407Y231D01*
D02*
X1207Y600D02*
X1407Y301D01*
D02*
X1038Y600D02*
X1207Y600D01*
D02*
X1508Y301D02*
X1508Y231D01*
D02*
X1309Y600D02*
X1508Y301D01*
D02*
X908Y1001D02*
X959Y1052D01*
D02*
X1309Y1001D02*
X1309Y600D01*
D02*
X959Y1051D02*
X1258Y1051D01*
D02*
X908Y929D02*
X908Y1001D01*
D02*
X1258Y1051D02*
X1309Y1001D01*
G54D19*
D02*
X1308Y100D02*
X1308Y158D01*
G54D18*
D02*
X1007Y1869D02*
X1007Y1829D01*
G54D19*
D02*
X849Y500D02*
X866Y500D01*
D02*
X866Y400D02*
X849Y400D01*
D02*
X1066Y400D02*
X1049Y400D01*
D02*
X1049Y500D02*
X1066Y500D01*
D02*
X949Y500D02*
X966Y500D01*
D02*
X966Y400D02*
X949Y400D01*
D02*
X757Y499D02*
X766Y500D01*
D02*
X608Y860D02*
X609Y800D01*
D02*
X609Y800D02*
X757Y499D01*
G54D18*
D02*
X907Y650D02*
X907Y871D01*
D02*
X907Y631D02*
X907Y650D01*
D02*
X1008Y631D02*
X1008Y650D01*
D02*
X1008Y650D02*
X1008Y871D01*
D02*
X708Y2000D02*
X807Y2100D01*
D02*
X707Y1829D02*
X708Y2000D01*
D02*
X1057Y2100D02*
X1086Y2129D01*
D02*
X807Y2100D02*
X1057Y2100D01*
D02*
X807Y1829D02*
X807Y2000D01*
D02*
X857Y2050D02*
X1156Y2050D01*
D02*
X807Y2000D02*
X857Y2050D01*
D02*
X1156Y2050D02*
X1208Y2099D01*
D02*
X1208Y2099D02*
X1208Y2120D01*
D02*
X908Y1951D02*
X908Y1829D01*
D02*
X958Y2000D02*
X908Y1951D01*
D02*
X1206Y2001D02*
X958Y2000D01*
D02*
X1308Y2120D02*
X1308Y2099D01*
D02*
X1308Y2099D02*
X1206Y2001D01*
D02*
X1457Y2299D02*
X986Y2300D01*
D02*
X1586Y2429D02*
X1457Y2299D01*
D02*
X1108Y1901D02*
X1108Y1829D01*
D02*
X1308Y1951D02*
X1156Y1952D01*
D02*
X1337Y1980D02*
X1308Y1951D01*
D02*
X1156Y1952D02*
X1108Y1901D01*
G54D19*
D02*
X1166Y2450D02*
X1149Y2450D01*
G54D20*
X1565Y850D02*
X1607Y892D01*
X1649Y850D01*
X1607Y808D01*
X1565Y850D01*
D02*
X1824Y1648D02*
X1781Y1691D01*
X1824Y1733D01*
X1866Y1691D01*
X1824Y1648D01*
D02*
G54D21*
X1924Y1483D02*
X1988Y1483D01*
X1924Y1482D02*
X1988Y1482D01*
X1924Y1481D02*
X1988Y1481D01*
X1924Y1480D02*
X1988Y1480D01*
X1924Y1479D02*
X1988Y1479D01*
X1924Y1478D02*
X1988Y1478D01*
X1924Y1477D02*
X1988Y1477D01*
X1924Y1476D02*
X1988Y1476D01*
X1924Y1475D02*
X1988Y1475D01*
X1924Y1474D02*
X1988Y1474D01*
X1924Y1473D02*
X1988Y1473D01*
X1924Y1472D02*
X1988Y1472D01*
X1924Y1471D02*
X1988Y1471D01*
X1924Y1470D02*
X1988Y1470D01*
X1924Y1469D02*
X1988Y1469D01*
X1924Y1468D02*
X1988Y1468D01*
X1924Y1467D02*
X1988Y1467D01*
X1924Y1466D02*
X1988Y1466D01*
X1924Y1465D02*
X1988Y1465D01*
X1924Y1464D02*
X1951Y1464D01*
X1962Y1464D02*
X1988Y1464D01*
X1924Y1463D02*
X1949Y1463D01*
X1964Y1463D02*
X1988Y1463D01*
X1924Y1462D02*
X1947Y1462D01*
X1965Y1462D02*
X1988Y1462D01*
X1924Y1461D02*
X1946Y1461D01*
X1966Y1461D02*
X1988Y1461D01*
X1924Y1460D02*
X1945Y1460D01*
X1967Y1460D02*
X1988Y1460D01*
X1924Y1459D02*
X1944Y1459D01*
X1968Y1459D02*
X1988Y1459D01*
X1924Y1458D02*
X1944Y1458D01*
X1969Y1458D02*
X1988Y1458D01*
X1924Y1457D02*
X1943Y1457D01*
X1969Y1457D02*
X1988Y1457D01*
X1924Y1456D02*
X1943Y1456D01*
X1970Y1456D02*
X1988Y1456D01*
X1924Y1455D02*
X1943Y1455D01*
X1970Y1455D02*
X1988Y1455D01*
X1924Y1454D02*
X1942Y1454D01*
X1970Y1454D02*
X1988Y1454D01*
X1924Y1453D02*
X1942Y1453D01*
X1970Y1453D02*
X1988Y1453D01*
X1924Y1452D02*
X1942Y1452D01*
X1970Y1452D02*
X1988Y1452D01*
X1924Y1451D02*
X1942Y1451D01*
X1971Y1451D02*
X1988Y1451D01*
X1924Y1450D02*
X1942Y1450D01*
X1970Y1450D02*
X1988Y1450D01*
X1924Y1449D02*
X1942Y1449D01*
X1970Y1449D02*
X1988Y1449D01*
X1924Y1448D02*
X1942Y1448D01*
X1970Y1448D02*
X1988Y1448D01*
X1924Y1447D02*
X1943Y1447D01*
X1970Y1447D02*
X1988Y1447D01*
X1924Y1446D02*
X1943Y1446D01*
X1969Y1446D02*
X1988Y1446D01*
X1924Y1445D02*
X1944Y1445D01*
X1969Y1445D02*
X1988Y1445D01*
X1924Y1444D02*
X1944Y1444D01*
X1968Y1444D02*
X1988Y1444D01*
X1924Y1443D02*
X1945Y1443D01*
X1968Y1443D02*
X1988Y1443D01*
X1924Y1442D02*
X1946Y1442D01*
X1967Y1442D02*
X1988Y1442D01*
X1924Y1441D02*
X1947Y1441D01*
X1966Y1441D02*
X1988Y1441D01*
X1924Y1440D02*
X1948Y1440D01*
X1965Y1440D02*
X1988Y1440D01*
X1924Y1439D02*
X1950Y1439D01*
X1963Y1439D02*
X1988Y1439D01*
X1924Y1438D02*
X1952Y1438D01*
X1960Y1438D02*
X1988Y1438D01*
X1924Y1437D02*
X1988Y1437D01*
X1924Y1436D02*
X1988Y1436D01*
X1924Y1435D02*
X1988Y1435D01*
X1924Y1434D02*
X1988Y1434D01*
X1924Y1433D02*
X1988Y1433D01*
X1924Y1432D02*
X1988Y1432D01*
X1924Y1431D02*
X1988Y1431D01*
X1924Y1430D02*
X1988Y1430D01*
X1924Y1429D02*
X1988Y1429D01*
X1924Y1428D02*
X1988Y1428D01*
X1924Y1427D02*
X1988Y1427D01*
X1924Y1426D02*
X1988Y1426D01*
X1924Y1425D02*
X1988Y1425D01*
X1924Y1424D02*
X1988Y1424D01*
X1924Y1423D02*
X1988Y1423D01*
X1924Y1422D02*
X1988Y1422D01*
X1924Y1421D02*
X1988Y1421D01*
X1924Y1420D02*
X1988Y1420D01*
X1924Y1419D02*
X1988Y1419D01*
D02*
G04 End of Copper0*
M02*